<?xml version="1.0" encoding="UTF-8" standalone="no"?>
<!-- Created with Inkscape (http://www.inkscape.org/) -->

<svg
   version="1.1"
   id="svg2"
   width="639.52002"
   height="415.48001"
   viewBox="0 0 639.52002 415.48001"
   sodipodi:docname="marca_UFPR_cor.eps"
   xmlns:inkscape="http://www.inkscape.org/namespaces/inkscape"
   xmlns:sodipodi="http://sodipodi.sourceforge.net/DTD/sodipodi-0.dtd"
   xmlns="http://www.w3.org/2000/svg"
   xmlns:svg="http://www.w3.org/2000/svg">
  <defs
     id="defs6" />
  <sodipodi:namedview
     id="namedview4"
     pagecolor="#ffffff"
     bordercolor="#000000"
     borderopacity="0.25"
     inkscape:showpageshadow="2"
     inkscape:pageopacity="0.0"
     inkscape:pagecheckerboard="0"
     inkscape:deskcolor="#d1d1d1" />
  <g
     id="g8"
     inkscape:groupmode="layer"
     inkscape:label="ink_ext_XXXXXX"
     transform="matrix(1.3333333,0,0,-1.3333333,0,415.48)">
    <g
       id="g10"
       transform="scale(0.1)">
      <path
         d="m 4035.52,850.711 h 47.88 l 11.93,0.019 11.67,0.059 11.43,0.109 11.16,0.141 10.9,0.199 10.65,0.231 10.4,0.293 10.14,0.316 9.88,0.371 9.63,0.391 9.37,0.449 9.12,0.492 8.85,0.539 8.61,0.571 8.35,0.621 8.09,0.648 7.84,0.699 7.57,0.762 7.33,0.777 7.07,0.821 6.81,0.883 6.56,0.918 6.3,0.96 6.05,0.969 5.78,1.063 5.54,1.066 5.27,1.141 5.02,1.152 4.77,1.207 4.51,1.25 4.25,1.293 4,1.328 3.81,1.379 3.68,1.473 3.57,1.5 3.45,1.57 3.33,1.641 3.21,1.687 3.09,1.762 2.97,1.84 2.84,1.871 2.74,1.957 2.59,2.012 2.5,2.07 2.36,2.148 2.24,2.2 2.13,2.25 2.01,2.32 1.88,2.41 1.76,2.441 1.64,2.52 1.52,2.578 1.4,2.633 1.28,2.699 1.15,2.77 1.04,2.832 0.9,2.886 0.8,2.954 0.67,3.007 0.55,3.09 0.42,3.141 0.32,3.199 0.18,3.27 0.06,3.32 -0.07,3.492 -0.19,3.438 -0.32,3.382 -0.46,3.297 -0.59,3.242 -0.71,3.168 -0.85,3.122 -0.98,3.05 -1.1,2.989 -1.24,2.91 -1.37,2.871 -1.48,2.789 -1.63,2.742 -1.76,2.649 -1.89,2.601 -2.01,2.539 -2.15,2.481 -2.28,2.419 -2.4,2.34 -2.53,2.29 -2.68,2.23 -2.79,2.14 -2.93,2.09 -3.06,2.04 -3.18,1.97 -3.32,1.89 -3.45,1.84 -3.57,1.78 -3.72,1.71 -3.82,1.65 -3.98,1.58 -4.09,1.52 -4.28,1.47 -4.5,1.4 -4.74,1.39 -4.96,1.31 -5.19,1.29 -5.43,1.23 -5.65,1.17 -5.88,1.13 -6.11,1.1 -6.35,1.03 -6.56,1.02 -6.8,0.93 -7.02,0.9 -7.25,0.86 -7.49,0.8 -7.71,0.76 -7.94,0.73 -8.17,0.66 -8.4,0.63 -8.62,0.58 -8.86,0.53 -9.08,0.49 -9.3,0.43 -9.54,0.39 -9.78,0.35 -9.99,0.29 -10.22,0.26 -10.45,0.21 -10.67,0.16 -10.91,0.11 -11.13,0.06 -11.36,0.04 h -47.88 V 850.711 Z M 4793.43,412.082 H 4426.67 L 4035.52,769.32 V 412.082 h -317.89 v 764.468 h 455.22 l 16.8,-0.04 16.54,-0.16 16.28,-0.27 16.01,-0.37 15.74,-0.47 15.49,-0.59 15.21,-0.68 14.95,-0.8 14.69,-0.88 14.41,-1 14.16,-1.11 13.89,-1.21 13.62,-1.33 13.36,-1.42 13.09,-1.53 12.83,-1.64 12.56,-1.74 12.3,-1.85 12.03,-1.95 11.75,-2.06 11.5,-2.14 11.22,-2.29 10.97,-2.36 10.69,-2.48 10.42,-2.58 10.17,-2.7 9.88,-2.79 9.63,-2.91 9.35,-3.01 9.09,-3.1 8.82,-3.22 8.56,-3.33 8.32,-3.43 8.05,-3.54 7.79,-3.63 7.54,-3.75 7.25,-3.87 6.99,-3.96 6.74,-4.07 6.48,-4.19 6.2,-4.28 5.94,-4.4 5.68,-4.49 5.41,-4.61 5.15,-4.72 4.89,-4.81 4.62,-4.94 4.35,-5.04 4.1,-5.14 3.82,-5.25 3.58,-5.35 3.3,-5.45 3.03,-5.57 2.77,-5.68 2.51,-5.76 2.24,-5.9 1.99,-6 1.71,-6.089 1.45,-6.191 1.19,-6.309 0.93,-6.43 0.66,-6.5 0.4,-6.64 0.13,-6.723 -0.1,-4.918 -0.26,-4.851 -0.46,-4.821 -0.62,-4.769 -0.82,-4.719 -1,-4.691 -1.17,-4.629 -1.35,-4.61 -1.54,-4.531 -1.72,-4.508 -1.9,-4.453 -2.08,-4.418 -2.25,-4.351 -2.44,-4.34 -2.63,-4.278 -2.8,-4.242 -2.98,-4.168 -3.17,-4.152 -3.34,-4.098 -3.53,-4.062 -3.7,-4 -3.89,-3.969 -4.07,-3.898 -4.25,-3.891 -4.42,-3.832 -4.62,-3.77 -4.79,-3.75 -4.97,-3.687 -5.15,-3.652 -5.34,-3.622 -5.51,-3.546 -5.7,-3.524 -5.8,-3.43 -5.92,-3.359 -6.02,-3.258 -6.12,-3.191 -6.24,-3.078 -6.34,-2.992 -6.46,-2.911 -6.55,-2.8 -6.67,-2.731 -6.77,-2.617 -6.88,-2.539 -6.97,-2.461 -7.09,-2.34 -7.2,-2.269 -7.31,-2.18 -7.4,-2.07 -7.52,-2 -7.61,-1.911 -7.72,-1.8 -7.83,-1.719 -7.94,-1.641 -8.04,-1.543 -8.14,-1.449 -8.25,-1.359 -8.35,-1.25 -8.46,-1.168 -8.57,-1.102 -8.66,-0.988 -8.77,-0.902 -8.87,-0.821 -8.98,-0.711 -9.15,-0.636 410.53,-347.77 v 0"
         style="fill:#040606;fill-opacity:1;fill-rule:evenodd;stroke:none"
         id="path12" />
      <path
         d="m 2560.94,412.082 v 764.468 h 365.77 l 18.11,-0.06 17.83,-0.16 17.53,-0.27 17.22,-0.41 16.94,-0.49 16.63,-0.62 16.33,-0.73 16.05,-0.84 15.73,-0.93 15.45,-1.08 15.15,-1.17 14.84,-1.29 14.55,-1.38 14.26,-1.53 13.95,-1.62 13.66,-1.74 13.36,-1.85 13.05,-1.96 12.76,-2.07 12.47,-2.18 12.15,-2.31 11.86,-2.4 11.56,-2.52 11.27,-2.64 10.96,-2.75 10.66,-2.87 10.37,-2.97 10.06,-3.09 9.76,-3.18 9.46,-3.32 9.16,-3.42 8.87,-3.53 8.6,-3.66 8.33,-3.79 8.06,-3.88 7.79,-4.03 7.5,-4.14 7.24,-4.27 6.96,-4.38 6.69,-4.51 6.42,-4.63 6.14,-4.75 5.87,-4.88 5.59,-5 5.32,-5.12 5.05,-5.25 4.77,-5.35 4.5,-5.49 4.22,-5.6 3.96,-5.75 3.68,-5.84 3.41,-5.97 3.12,-6.1 2.88,-6.23 2.58,-6.33 2.32,-6.458 2.04,-6.582 1.77,-6.719 1.5,-6.84 1.22,-6.949 0.96,-7.07 0.68,-7.211 0.4,-7.301 0.15,-7.442 -0.15,-6.898 -0.41,-6.809 -0.68,-6.722 -0.96,-6.617 -1.24,-6.532 -1.5,-6.441 -1.79,-6.328 -2.05,-6.25 -2.34,-6.153 -2.61,-6.058 -2.88,-5.969 -3.16,-5.883 -3.44,-5.769 -3.71,-5.68 -3.98,-5.598 -4.25,-5.492 -4.54,-5.41 -4.8,-5.32 -5.09,-5.207 -5.36,-5.121 -5.64,-5.039 -5.91,-4.942 -6.19,-4.84 -6.45,-4.75 -6.74,-4.672 -7.02,-4.546 -7.29,-4.473 -7.56,-4.391 -7.85,-4.277 -8.11,-4.199 -8.4,-4.082 -8.66,-4.032 -8.89,-3.859 -9.09,-3.769 -9.32,-3.641 -9.51,-3.508 -9.75,-3.383 -9.94,-3.277 -10.16,-3.152 -10.37,-3 -10.58,-2.887 -10.8,-2.781 -11.01,-2.653 -11.22,-2.519 -11.43,-2.41 -11.65,-2.278 -11.85,-2.152 -12.07,-2.051 -12.29,-1.887 -12.49,-1.8 -12.69,-1.661 -12.91,-1.539 -13.13,-1.429 -13.33,-1.293 -13.54,-1.168 -13.75,-1.063 -13.98,-0.91 -14.17,-0.797 -14.38,-0.691 -14.59,-0.551 -14.82,-0.418 -15.01,-0.32 -15.22,-0.172 -15.43,-0.078 h -87.4 V 412.082 h -319.97 z m 319.97,419.367 h 45.8 l 8.05,0.039 7.92,0.082 7.77,0.129 7.64,0.18 7.5,0.25 7.35,0.301 7.22,0.371 7.08,0.39 6.93,0.469 6.8,0.512 6.66,0.558 6.51,0.629 6.39,0.68 6.24,0.723 6.09,0.777 5.97,0.84 5.82,0.902 5.68,0.938 5.54,1.019 5.41,1.032 5.27,1.109 5.13,1.16 4.99,1.231 4.84,1.25 4.72,1.332 4.57,1.359 4.43,1.449 4.3,1.461 4.16,1.551 4.02,1.578 3.88,1.641 3.74,1.699 3.63,1.781 3.49,1.828 3.39,1.903 3.28,1.949 3.16,2.051 3.04,2.089 2.94,2.149 2.81,2.219 2.72,2.293 2.59,2.359 2.47,2.418 2.36,2.492 2.25,2.527 2.14,2.622 2.01,2.679 1.9,2.731 1.79,2.808 1.67,2.883 1.56,2.938 1.44,2.992 1.32,3.09 1.23,3.121 1.09,3.187 0.99,3.262 0.86,3.34 0.76,3.379 0.63,3.449 0.52,3.519 0.4,3.59 0.29,3.66 0.18,3.711 0.06,3.77 -0.06,3.492 -0.18,3.438 -0.29,3.382 -0.4,3.321 -0.52,3.258 -0.63,3.179 -0.76,3.153 -0.86,3.07 -0.99,3 -1.09,2.969 -1.23,2.89 -1.32,2.84 -1.45,2.77 -1.55,2.711 -1.67,2.66 -1.79,2.597 -1.9,2.539 -2.01,2.482 -2.14,2.42 -2.25,2.34 -2.36,2.31 -2.47,2.24 -2.6,2.17 -2.71,2.13 -2.81,2.07 -2.94,1.99 -3.04,1.96 -3.17,1.87 -3.27,1.84 -3.39,1.75 -3.49,1.72 -3.63,1.64 -3.74,1.61 -3.88,1.54 -4.03,1.5 -4.15,1.43 -4.3,1.4 -4.43,1.33 -4.58,1.29 -4.71,1.23 -4.84,1.19 -4.99,1.16 -5.13,1.07 -5.27,1.04 -5.41,0.97 -5.54,0.94 -5.68,0.88 -5.82,0.84 -5.97,0.78 -6.1,0.72 -6.23,0.69 -6.39,0.62 -6.51,0.59 -6.66,0.52 -6.8,0.47 -6.93,0.43 -7.08,0.37 -7.22,0.34 -7.35,0.27 -7.5,0.23 -7.64,0.18 -7.77,0.12 -7.92,0.07 -8.05,0.02 h -45.8 v -224.471 0"
         style="fill:#040606;fill-opacity:1;fill-rule:evenodd;stroke:none"
         id="path14" />
      <path
         d="m 1472.89,412.082 v 764.468 h 830.02 V 1071.08 H 1714.5 V 880.469 h 588.41 V 771.43 H 1714.5 V 412.082 h -241.61 v 0"
         style="fill:#040606;fill-opacity:1;fill-rule:evenodd;stroke:none"
         id="path16" />
      <path
         d="M 2.40234,1176.55 H 240.898 V 712.41 l 0.094,-6.43 0.27,-6.308 0.457,-6.211 0.625,-6.109 0.82,-6.024 0.992,-5.906 1.176,-5.801 1.359,-5.73 1.543,-5.602 1.715,-5.508 1.91,-5.41 2.082,-5.312 2.266,-5.2 2.445,-5.121 2.633,-5 2.809,-4.898 2.992,-4.801 3.168,-4.711 3.363,-4.609 3.535,-4.489 3.727,-4.421 3.902,-4.289 4.082,-4.219 4.266,-4.102 4.449,-4.008 4.633,-3.902 4.82,-3.809 4.996,-3.691 5.18,-3.617 5.363,-3.512 5.543,-3.398 5.727,-3.321 5.906,-3.191 6.09,-3.082 6.269,-2.988 6.442,-2.891 6.625,-2.789 6.801,-2.68 6.98,-2.582 7.16,-2.5 7.34,-2.359 7.516,-2.277 7.699,-2.192 7.875,-2.07 8.051,-1.981 8.234,-1.871 8.41,-1.777 8.59,-1.68 8.777,-1.562 8.938,-1.469 9.129,-1.359 9.305,-1.27 9.484,-1.172 9.66,-1.058 9.84,-0.969 10.019,-0.863 10.2,-0.77 10.383,-0.641 10.554,-0.57 10.735,-0.449 10.918,-0.348 11.089,-0.25 11.27,-0.16 11.449,-0.062 11.426,0.062 11.234,0.16 11.059,0.25 10.879,0.348 10.715,0.449 10.519,0.57 10.348,0.641 10.168,0.77 9.988,0.863 9.816,0.969 9.633,1.058 9.453,1.172 9.282,1.27 9.097,1.359 8.922,1.469 8.738,1.562 8.571,1.68 8.39,1.777 8.215,1.871 8.028,1.981 7.859,2.07 7.68,2.192 7.5,2.277 7.324,2.359 7.148,2.5 6.965,2.582 6.801,2.68 6.609,2.789 6.442,2.891 6.258,2.988 6.085,3.082 5.903,3.191 5.73,3.321 5.547,3.398 5.363,3.512 5.18,3.617 4.996,3.691 4.817,3.809 4.632,3.902 4.45,4.008 4.265,4.102 4.086,4.219 3.903,4.289 3.718,4.421 3.539,4.489 3.36,4.609 3.172,4.711 2.988,4.801 2.812,4.898 2.637,5 2.442,5.121 2.265,5.2 2.086,5.312 1.902,5.41 1.719,5.508 1.539,5.602 1.364,5.73 1.175,5.801 0.996,5.906 0.813,6.024 0.633,6.109 0.453,6.211 0.269,6.308 0.086,6.43 v 464.14 h 241.62 V 700.828 l -0.15,-9.629 -0.45,-9.461 -0.73,-9.308 -1.04,-9.16 -1.34,-9.008 -1.63,-8.84 -1.93,-8.703 -2.23,-8.547 -2.52,-8.402 -2.82,-8.239 -3.12,-8.09 -3.41,-7.929 -3.71,-7.793 -4.01,-7.641 -4.31,-7.476 -4.61,-7.321 -4.9,-7.191 -5.2,-7.012 -5.49,-6.879 -5.8,-6.711 -6.09,-6.57 -6.4,-6.418 -6.69,-6.25 -6.98,-6.121 -7.28,-5.949 -7.59,-5.801 -7.88,-5.649 -8.18,-5.511 -8.48,-5.328 -8.78,-5.192 -9.07,-5.058 -9.38,-4.891 -9.68,-4.719 -9.97,-4.59 -10.28,-4.441 -10.59,-4.289 -10.87,-4.141 -11.2,-3.992 -11.486,-3.828 -11.793,-3.691 -12.09,-3.508 -12.39,-3.403 -12.696,-3.218 -13.004,-3.09 -13.289,-2.93 -13.605,-2.789 -13.895,-2.641 -14.207,-2.48 -14.5,-2.32 -14.8,-2.192 -15.102,-2.027 -15.402,-1.883 -15.703,-1.719 -16,-1.578 -16.305,-1.441 -16.606,-1.27 -16.906,-1.14 -17.199,-0.969 -17.5,-0.82 -17.801,-0.692 -18.098,-0.519 -18.406,-0.371 -18.695,-0.239 -18.996,-0.082 -19.024,0.082 -18.726,0.239 -18.422,0.371 -18.121,0.519 -17.809,0.692 -17.515,0.82 -17.207,0.969 -16.914,1.14 -16.594,1.27 -16.305,1.422 -15.992,1.59 -15.699,1.726 -15.383,1.883 -15.086,2.027 -14.785,2.172 -14.481,2.32 -14.172,2.481 -13.867,2.641 -13.566,2.769 -13.27,2.93 -12.953,3.07 -12.66,3.219 -12.348,3.379 -12.047,3.519 -11.742,3.692 -11.441,3.808 -11.133,3.981 -10.832,4.121 -10.519,4.281 -10.223,4.41 -9.91,4.571 -9.614,4.726 -9.308,4.863 -9.02,5.039 -8.715,5.18 -8.421,5.328 -8.125,5.492 -7.829,5.641 -7.5347,5.797 -7.2344,5.941 -6.9336,6.11 -6.6445,6.25 -6.3438,6.41 -6.0547,6.562 -5.7578,6.719 -5.4648,6.879 -5.1602,7.012 -4.8711,7.187 -4.5742,7.321 -4.2734,7.5 -3.9805,7.64 -3.6875,7.789 -3.3945,7.953 -3.0938,8.098 -2.7968,8.27 -2.5118,8.39 -2.20699,8.582 -1.91797,8.731 -1.61719,8.867 -1.32812,9.043 -1.03516,9.18 -0.73828,9.339 -0.44141,9.489 -0.14844,9.648 v 475.722 0"
         style="fill:#040606;fill-opacity:1;fill-rule:evenodd;stroke:none"
         id="path18" />
      <path
         d="m 0,281.719 h 4796.37 v -41.11 H 0 v 41.11 0"
         style="fill:#104f8c;fill-opacity:1;fill-rule:evenodd;stroke:none"
         id="path20" />
      <path
         d="m 4679.34,178.418 25.66,29.141 h 30.37 l -39.44,-29.141 h -16.59 z M 4760.08,6.12109 4737.64,46.5313 h -78.26 L 4636.43,6.12109 h -33.78 L 4698.37,169.211 4793.95,6.12109 h -33.87 z m -88.86,61.61721 h 55.08 l -20.24,35.7817 c -1.15,2.312 -2.4,4.921 -3.64,7.89 -1.25,2.969 -2.54,6.25 -3.78,9.918 -1.1,-3.43 -2.21,-6.66 -3.45,-9.617 -1.21,-2.973 -2.45,-5.672 -3.69,-8.191 L 4671.22,67.7383 Z M 4407.43,6.12109 V 169.211 l 125.54,-95.9024 c 3.46,-2.7188 6.91,-5.6094 10.41,-8.6797 3.51,-3.0586 7.2,-6.5391 11.06,-10.418 V 162.969 h 29.73 V 0 l -128.11,97.6211 c -3.41,2.6409 -6.73,5.4099 -9.92,8.3399 -3.22,2.969 -6.26,6 -9.12,9.219 V 6.12109 h -29.59 z m -52.53,0 -22.44,40.41021 H 4254.2 L 4231.25,6.12109 h -33.78 L 4293.19,169.211 4388.77,6.12109 h -33.87 z m -88.85,61.61721 h 55.07 l -20.23,35.7817 c -1.15,2.312 -2.4,4.921 -3.64,7.89 -1.25,2.969 -2.54,6.25 -3.78,9.918 -1.11,-3.43 -2.21,-6.66 -3.46,-9.617 -1.2,-2.973 -2.44,-5.672 -3.68,-8.191 l -20.28,-35.7817 z m -166.46,8.5625 V 6.12109 h -30.1 V 162.969 h 44.8 c 13.14,0 23.37,-0.68 30.6,-2.028 7.24,-1.359 13.41,-3.589 18.58,-6.73 6.12,-3.813 10.82,-8.723 14.19,-14.711 3.32,-6 4.98,-12.539 4.98,-19.711 0,-12.539 -3.83,-22.3788 -11.48,-29.5077 -7.65,-7.1133 -18.98,-11.3907 -33.92,-12.8125 L 4205.31,6.12109 H 4169 l -65.77,70.17971 h -3.64 z m 2.03,19.8203 h 5.8 c 17.01,0 28.3,1.5781 33.88,4.7309 5.58,3.136 8.39,8.707 8.39,16.707 0,8.64 -3,14.711 -9,18.25 -5.98,3.55 -17.09,5.312 -33.27,5.312 h -5.8 V 96.1211 Z M 4016.96,6.12109 3994.51,46.5313 h -78.24 L 3893.31,6.12109 h -33.77 L 3955.25,169.211 4050.83,6.12109 h -33.87 z m -88.85,61.61721 h 55.07 l -20.23,35.7817 c -1.15,2.312 -2.39,4.921 -3.64,7.89 -1.24,2.969 -2.53,6.25 -3.78,9.918 -1.1,-3.43 -2.21,-6.66 -3.46,-9.617 -1.19,-2.973 -2.44,-5.672 -3.68,-8.191 l -20.28,-35.7817 z m -143.65,8.793 V 6.12109 h -30.09 V 162.969 h 48.62 c 14.37,0 24.97,-0.598 31.8,-1.848 6.77,-1.25 12.72,-3.32 17.74,-6.191 6.22,-3.621 11.1,-8.559 14.61,-14.692 3.5,-6.187 5.25,-12.988 5.25,-20.449 0,-7.418 -1.75,-14.258 -5.25,-20.5507 -3.51,-6.3086 -8.39,-11.2266 -14.61,-14.7774 -5.02,-2.8515 -10.97,-4.9023 -17.74,-6.1093 -6.83,-1.2032 -17.43,-1.8203 -31.8,-1.8203 h -6.36 -12.17 z m 2.04,20.8789 h 8.24 c 17.84,0 29.72,1.5195 35.67,4.6098 5.94,3.058 8.9,8.468 8.9,16.269 0,8.383 -3.19,14.262 -9.54,17.652 -6.32,3.457 -18.02,5.18 -35.03,5.18 h -8.24 V 97.4102 Z M 3634.09,84.2383 c 0,-11.1485 -2.63,-21.6875 -7.89,-31.5977 -5.29,-9.9414 -12.95,-18.8125 -23.04,-26.6015 -10.18,-7.7696 -21.66,-13.75 -34.42,-17.87113 -12.76,-4.13672 -26.18,-6.22656 -40.23,-6.22656 -14.24,0 -27.8,2.08984 -40.7,6.26953 -12.95,4.19926 -24.32,10.12106 -34.24,17.82816 -10.09,7.789 -17.74,16.6211 -22.94,26.4922 -5.21,9.8398 -7.85,20.3984 -7.85,31.707 0,11.2305 2.64,21.8007 7.85,31.7027 5.2,9.957 12.85,18.848 22.94,26.7 10.09,7.789 21.52,13.711 34.29,17.781 12.77,4.058 26.31,6.109 40.65,6.109 14.24,0 27.69,-2.051 40.42,-6.109 12.76,-4.07 24.14,-9.992 34.23,-17.781 10.09,-7.93 17.75,-16.891 23.04,-26.832 5.26,-9.977 7.89,-20.4887 7.89,-31.5707 z m -33.51,0 c 0,7.8906 -1.84,15.4297 -5.48,22.6017 -3.64,7.129 -8.85,13.5 -15.71,19.058 -6.64,5.512 -14.38,9.731 -23.14,12.68 -8.8,2.973 -18.02,4.473 -27.74,4.473 -9.73,0 -18.99,-1.461 -27.75,-4.391 -8.75,-2.93 -16.58,-7.172 -23.41,-12.762 -6.81,-5.476 -12.07,-11.808 -15.67,-18.937 -3.59,-7.1719 -5.39,-14.7501 -5.39,-22.7227 0,-7.9375 1.8,-15.4375 5.39,-22.5274 3.6,-7.0625 8.86,-13.3789 15.67,-18.9492 6.83,-5.5937 14.61,-9.8398 23.36,-12.7617 8.72,-2.918 17.98,-4.3906 27.8,-4.3906 9.63,0 18.8,1.4726 27.47,4.3906 8.66,2.9219 16.49,7.168 23.41,12.7617 6.86,5.5703 12.07,11.8867 15.71,19.0196 3.64,7.0898 5.48,14.5898 5.48,22.457 z M 3226.75,6.12109 V 162.969 h 43.32 c 28.2,0 48.02,-1.129 59.49,-3.36 11.48,-2.257 21.52,-6.031 30.19,-11.3 11.42,-6.938 20.09,-15.821 25.99,-26.68 5.89,-10.879 8.85,-23.2696 8.85,-37.1681 0,-13.9492 -2.96,-26.2929 -8.85,-37.0507 -5.9,-10.7618 -14.57,-19.6094 -25.99,-26.6211 -8.67,-5.2774 -18.48,-9.0508 -29.5,-11.30863 -11.06,-2.23047 -28.2,-3.35938 -51.52,-3.35938 h -8.66 -43.32 z m 32.12,23.05081 h 27 c 14.84,0 26,0.7578 33.42,2.3164 7.41,1.582 13.86,4.2617 19.39,7.9531 7.47,5.0781 13.05,11.3672 16.78,18.9102 3.73,7.5273 5.62,16.2968 5.62,26.3164 0,9.9804 -1.89,18.773 -5.62,26.312 -3.73,7.52 -9.31,13.809 -16.78,18.911 -5.56,3.687 -12.3,6.359 -20.04,7.929 -7.79,1.578 -20.01,2.34 -36.55,2.34 h -11.61 -11.61 V 29.1719 Z M 3013.28,6.12109 V 162.969 h 32.12 V 28.9297 h 71.85 V 6.12109 h -103.97 z m -52.54,0 -22.44,40.41021 h -78.25 L 2837.1,6.12109 h -33.78 L 2899.03,169.211 2994.62,6.12109 h -33.88 z m -88.85,61.61721 h 55.07 l -20.22,35.7817 c -1.16,2.312 -2.4,4.921 -3.64,7.89 -1.25,2.969 -2.54,6.25 -3.79,9.918 -1.1,-3.43 -2.21,-6.66 -3.45,-9.617 -1.2,-2.973 -2.44,-5.672 -3.69,-8.191 l -20.28,-35.7817 z m -166.45,8.5625 V 6.12109 h -30.1 V 162.969 h 44.8 c 13.13,0 23.37,-0.68 30.59,-2.028 7.24,-1.359 13.42,-3.589 18.58,-6.73 6.13,-3.813 10.83,-8.723 14.2,-14.711 3.31,-6 4.97,-12.539 4.97,-19.711 0,-12.539 -3.82,-22.3788 -11.47,-29.5077 -7.65,-7.1133 -18.99,-11.3907 -33.92,-12.8125 l 68.06,-71.34771 h -36.32 l -65.75,70.17971 h -3.64 z m 2.02,19.8203 h 5.81 c 17,0 28.29,1.5781 33.88,4.7309 5.57,3.136 8.39,8.707 8.39,16.707 0,8.64 -3.01,14.711 -9,18.25 -5.99,3.55 -17.1,5.312 -33.27,5.312 h -5.81 V 96.1211 Z M 2528.19,6.12109 V 162.969 h 110.33 v -21.641 h -78.21 V 102.02 h 78.21 V 79.6289 h -78.21 V 28.9297 h 78.21 V 6.12109 h -110.33 z m -204.66,0 V 162.969 h 43.32 c 28.21,0 48.02,-1.129 59.5,-3.36 11.47,-2.257 21.52,-6.031 30.18,-11.3 11.43,-6.938 20.09,-15.821 26,-26.68 5.89,-10.879 8.84,-23.2696 8.84,-37.1681 0,-13.9492 -2.95,-26.2929 -8.84,-37.0507 -5.91,-10.7618 -14.57,-19.6094 -26,-26.6211 -8.66,-5.2774 -18.47,-9.0508 -29.49,-11.30863 C 2415.98,7.25 2398.83,6.12109 2375.52,6.12109 h -8.67 -43.32 z m 32.12,23.05081 h 27.01 c 14.84,0 25.99,0.7578 33.4,2.3164 7.43,1.582 13.88,4.2617 19.41,7.9531 7.47,5.0781 13.05,11.3672 16.78,18.9102 3.73,7.5273 5.62,16.2968 5.62,26.3164 0,9.9804 -1.89,18.773 -5.62,26.312 -3.73,7.52 -9.31,13.809 -16.78,18.911 -5.58,3.687 -12.31,6.359 -20.04,7.929 -7.79,1.578 -20.01,2.34 -36.55,2.34 h -11.61 -11.62 V 29.1719 Z M 2176.38,6.12109 V 162.969 h 110.33 V 141.328 H 2208.5 V 102.02 h 78.21 V 79.6289 H 2208.5 V 28.9297 h 78.21 V 6.12109 h -110.33 z m -145.12,0 V 162.969 h 110.33 v -21.641 h -78.2 V 102.23 h 78.2 V 79.8516 h -78.2 V 6.12109 h -32.13 z m -230.61,0 V 162.969 h 110.33 v -21.641 h -78.21 V 102.02 h 78.21 V 79.6289 h -78.21 V 28.9297 h 78.21 V 6.12109 h -110.33 z m -204.66,0 V 162.969 h 43.32 c 28.2,0 48.03,-1.129 59.49,-3.36 11.48,-2.257 21.53,-6.031 30.19,-11.3 11.43,-6.938 20.1,-15.821 26,-26.68 5.9,-10.879 8.84,-23.2696 8.84,-37.1681 0,-13.9492 -2.94,-26.2929 -8.84,-37.0507 -5.9,-10.7618 -14.57,-19.6094 -26,-26.6211 -8.66,-5.2774 -18.48,-9.0508 -29.49,-11.30863 C 1688.44,7.25 1671.3,6.12109 1647.98,6.12109 h -8.67 -43.32 z m 32.12,23.05081 h 27.01 c 14.84,0 25.99,0.7578 33.41,2.3164 7.42,1.582 13.87,4.2617 19.4,7.9531 7.47,5.0781 13.04,11.3672 16.78,18.9102 3.73,7.5273 5.62,16.2968 5.62,26.3164 0,9.9804 -1.89,18.773 -5.62,26.312 -3.74,7.52 -9.31,13.809 -16.78,18.911 -5.57,3.687 -12.3,6.359 -20.05,7.929 -7.78,1.578 -20,2.34 -36.54,2.34 h -11.61 -11.62 V 29.1719 Z M 1543.46,6.12109 1521.01,46.5313 h -78.25 L 1419.81,6.12109 h -33.78 L 1481.75,169.211 1577.32,6.12109 h -33.86 z M 1454.6,67.7383 h 55.08 l -20.23,35.7817 c -1.16,2.312 -2.4,4.921 -3.64,7.89 -1.25,2.969 -2.54,6.25 -3.79,9.918 -1.1,-3.43 -2.21,-6.66 -3.45,-9.617 -1.2,-2.973 -2.44,-5.672 -3.69,-8.191 L 1454.6,67.7383 Z M 1213.08,6.12109 V 162.969 h 43.31 c 28.21,0 48.02,-1.129 59.5,-3.36 11.48,-2.257 21.52,-6.031 30.18,-11.3 11.43,-6.938 20.1,-15.821 26,-26.68 5.89,-10.879 8.84,-23.2696 8.84,-37.1681 0,-13.9492 -2.95,-26.2929 -8.84,-37.0507 -5.9,-10.7618 -14.57,-19.6094 -26,-26.6211 -8.66,-5.2774 -18.47,-9.0508 -29.49,-11.30863 -11.06,-2.23047 -28.2,-3.35938 -51.52,-3.35938 h -8.67 -43.31 z m 32.12,23.05081 h 27 c 14.84,0 25.99,0.7578 33.41,2.3164 7.42,1.582 13.87,4.2617 19.4,7.9531 7.47,5.0781 13.05,11.3672 16.78,18.9102 3.73,7.5273 5.62,16.2968 5.62,26.3164 0,9.9804 -1.89,18.773 -5.62,26.312 -3.73,7.52 -9.31,13.809 -16.78,18.911 -5.57,3.687 -12.3,6.359 -20.04,7.929 -7.79,1.578 -20,2.34 -36.55,2.34 h -11.61 -11.61 V 29.1719 Z M 1134.78,6.12109 V 162.969 h 32.12 V 6.12109 h -32.12 z m -163.647,31.42971 25.621,9.3906 c 2.445,-6.9922 6.916,-12.332 13.366,-16 6.5,-3.6914 14.79,-5.5117 24.84,-5.5117 9.54,0 17.15,2.1211 22.76,6.332 5.63,4.1992 8.44,9.8281 8.44,16.8985 0,9.2187 -9.63,17.4414 -28.89,24.6484 -2.72,1.0508 -4.75,1.8516 -6.23,2.3398 -21.75,8.4414 -36.263,16.0625 -43.501,22.8907 -7.234,6.8009 -10.871,15.1799 -10.871,25.0199 0,12.793 5.477,23.152 16.398,31.07 10.924,7.949 25.254,11.902 43.004,11.902 14.56,0 26.77,-2.23 36.59,-6.703 9.81,-4.449 16.59,-10.898 20.37,-19.238 l -25.12,-10.27 c -3.96,4.942 -8.29,8.532 -13.04,10.801 -4.7,2.297 -10.14,3.438 -16.27,3.438 -8.61,0 -15.48,-1.797 -20.55,-5.348 -5.12,-3.582 -7.65,-8.379 -7.65,-14.383 0,-9.43 11.15,-18.199 33.5,-26.328 1.7,-0.6602 3.04,-1.1719 4.01,-1.5 19.54,-7.1719 32.95,-14.1406 40.27,-20.9609 7.29,-6.8282 10.93,-15.3477 10.93,-25.5703 0,-14.8399 -5.9,-26.6602 -17.7,-35.3907 -11.79,-8.74997 -27.69,-13.13669 -47.79,-13.13669 -16.82,0 -30.6,3.08984 -41.378,9.21879 -10.742,6.1484 -17.789,14.9179 -21.109,26.3906 z m -113.41,38.75 V 6.12109 H 827.621 V 162.969 h 44.801 c 13.133,0 23.359,-0.68 30.601,-2.028 7.231,-1.359 13.407,-3.589 18.571,-6.73 6.133,-3.813 10.828,-8.723 14.191,-14.711 3.32,-6 4.977,-12.539 4.977,-19.711 0,-12.539 -3.824,-22.3788 -11.473,-29.5077 C 921.637,83.168 910.305,78.8906 895.371,77.4688 L 963.438,6.12109 H 927.125 L 861.363,76.3008 h -3.64 z m 2.023,19.8203 h 5.813 c 17,0 28.293,1.5781 33.867,4.7309 5.574,3.136 8.387,8.707 8.387,16.707 0,8.64 -2.993,14.711 -8.989,18.25 -5.984,3.55 -17.094,5.312 -33.265,5.312 h -5.813 V 96.1211 Z M 680.473,6.12109 V 162.969 H 790.801 V 141.328 H 712.598 V 102.02 h 78.203 V 79.6289 H 712.598 V 28.9297 h 78.203 V 6.12109 H 680.473 Z M 572.316,0 484.156,162.969 h 33.364 l 44.289,-83.5706 c 2.582,-4.8593 4.746,-9.3203 6.449,-13.457 1.711,-4.082 3.09,-8.0117 4.058,-11.7305 1.196,3.9571 2.668,8 4.465,12.2188 1.797,4.2383 3.922,8.5586 6.36,12.9687 l 44.105,83.5706 h 33.223 L 572.316,0 Z M 431.246,6.12109 V 162.969 h 32.125 V 6.12109 h -32.125 z m -222.633,0 V 169.211 L 334.152,73.3086 c 3.45,-2.7188 6.907,-5.6094 10.414,-8.6797 3.5,-3.0586 7.188,-6.5391 11.067,-10.418 V 162.969 h 29.715 V 0 l -128.11,97.6211 c -3.414,2.6409 -6.73,5.4099 -9.914,8.3399 -3.226,2.969 -6.265,6 -9.125,9.219 V 6.12109 H 208.613 Z M 2.06641,162.969 H 33.7695 V 67.7383 c 0,-14.1602 4.1016,-24.7695 12.3555,-31.8867 8.2461,-7.1016 20.5469,-10.6524 36.9063,-10.6524 16.3203,0 28.5737,3.5508 36.8237,10.6524 8.25,7.1172 12.348,17.7265 12.348,31.8867 v 95.2307 h 32.129 V 65.3594 c 0,-21.211 -6.734,-37.0703 -20.234,-47.6211 C 130.598,7.21094 110.227,1.94141 83.082,1.94141 55.8906,1.94141 35.5664,7.21094 22.1523,17.7188 8.74609,28.2109 2.06641,44.0898 2.06641,65.3594 v 97.6096 0"
         style="fill:#040606;fill-opacity:1;fill-rule:evenodd;stroke:none"
         id="path22" />
      <path
         d="m 125.625,2569.18 h 123.168 v -22.16 H 125.625 v 22.16 0"
         style="fill:#104f8c;fill-opacity:1;fill-rule:nonzero;stroke:none"
         id="path24" />
      <path
         d="m 4668.3,2569.18 h -123.17 v -22.16 h 123.17 v 22.16 0"
         style="fill:#104f8c;fill-opacity:1;fill-rule:nonzero;stroke:none"
         id="path26" />
      <path
         d="M 125.625,1908.95 H 248.793 V 1886.8 H 125.625 v 22.15 0"
         style="fill:#104f8c;fill-opacity:1;fill-rule:nonzero;stroke:none"
         id="path28" />
      <path
         d="m 4668.3,1908.95 h -123.17 v -22.15 h 123.17 v 22.15 0"
         style="fill:#104f8c;fill-opacity:1;fill-rule:nonzero;stroke:none"
         id="path30" />
      <path
         d="m 337.449,2569.18 h 123.215 v -22.16 H 337.449 v 22.16 0"
         style="fill:#104f8c;fill-opacity:1;fill-rule:nonzero;stroke:none"
         id="path32" />
      <path
         d="m 4456.45,2569.18 h -123.21 v -22.16 h 123.21 v 22.16 0"
         style="fill:#104f8c;fill-opacity:1;fill-rule:nonzero;stroke:none"
         id="path34" />
      <path
         d="M 337.449,1908.95 H 460.664 V 1886.8 H 337.449 v 22.15 0"
         style="fill:#104f8c;fill-opacity:1;fill-rule:nonzero;stroke:none"
         id="path36" />
      <path
         d="m 4456.45,1908.95 h -123.21 v -22.15 h 123.21 v 22.15 0"
         style="fill:#104f8c;fill-opacity:1;fill-rule:nonzero;stroke:none"
         id="path38" />
      <path
         d="M 549.336,2569.18 H 672.52 v -22.16 H 549.336 v 22.16 0"
         style="fill:#104f8c;fill-opacity:1;fill-rule:nonzero;stroke:none"
         id="path40" />
      <path
         d="m 4244.59,2569.18 h -123.16 v -22.16 h 123.16 v 22.16 0"
         style="fill:#104f8c;fill-opacity:1;fill-rule:nonzero;stroke:none"
         id="path42" />
      <path
         d="M 549.336,1908.95 H 672.52 V 1886.8 H 549.336 v 22.15 0"
         style="fill:#104f8c;fill-opacity:1;fill-rule:nonzero;stroke:none"
         id="path44" />
      <path
         d="m 4244.59,1908.95 h -123.16 v -22.15 h 123.16 v 22.15 0"
         style="fill:#104f8c;fill-opacity:1;fill-rule:nonzero;stroke:none"
         id="path46" />
      <path
         d="m 761.223,2569.18 h 123.168 v -22.16 H 761.223 v 22.16 0"
         style="fill:#104f8c;fill-opacity:1;fill-rule:nonzero;stroke:none"
         id="path48" />
      <path
         d="m 4032.7,2569.18 h -123.15 v -22.16 h 123.15 v 22.16 0"
         style="fill:#104f8c;fill-opacity:1;fill-rule:nonzero;stroke:none"
         id="path50" />
      <path
         d="M 761.223,1908.95 H 884.391 V 1886.8 H 761.223 v 22.15 0"
         style="fill:#104f8c;fill-opacity:1;fill-rule:nonzero;stroke:none"
         id="path52" />
      <path
         d="m 4032.7,1908.95 h -123.15 v -22.15 h 123.15 v 22.15 0"
         style="fill:#104f8c;fill-opacity:1;fill-rule:nonzero;stroke:none"
         id="path54" />
      <path
         d="m 973.066,2569.18 h 125.624 v -22.16 H 973.066 v 22.16 0"
         style="fill:#104f8c;fill-opacity:1;fill-rule:nonzero;stroke:none"
         id="path56" />
      <path
         d="m 3820.83,2569.18 h -125.61 v -22.16 h 125.61 v 22.16 0"
         style="fill:#104f8c;fill-opacity:1;fill-rule:nonzero;stroke:none"
         id="path58" />
      <path
         d="M 973.066,1908.95 H 1098.69 V 1886.8 H 973.066 v 22.15 0"
         style="fill:#104f8c;fill-opacity:1;fill-rule:nonzero;stroke:none"
         id="path60" />
      <path
         d="m 3820.83,1908.95 h -125.61 v -22.15 h 125.61 v 22.15 0"
         style="fill:#104f8c;fill-opacity:1;fill-rule:nonzero;stroke:none"
         id="path62" />
      <path
         d="m 1184.92,2569.18 h 123.18 v -22.16 h -123.18 v 22.16 0"
         style="fill:#104f8c;fill-opacity:1;fill-rule:nonzero;stroke:none"
         id="path64" />
      <path
         d="m 3608.99,2569.18 h -123.16 v -22.16 h 123.16 v 22.16 0"
         style="fill:#104f8c;fill-opacity:1;fill-rule:nonzero;stroke:none"
         id="path66" />
      <path
         d="m 1184.92,1908.95 h 123.18 v -22.15 h -123.18 v 22.15 0"
         style="fill:#104f8c;fill-opacity:1;fill-rule:nonzero;stroke:none"
         id="path68" />
      <path
         d="m 3608.99,1908.95 h -123.16 v -22.15 h 123.16 v 22.15 0"
         style="fill:#104f8c;fill-opacity:1;fill-rule:nonzero;stroke:none"
         id="path70" />
      <path
         d="m 2458.9,2566.71 h 135.46 v -22.17 H 2458.9 v 22.17 0"
         style="fill:#104f8c;fill-opacity:1;fill-rule:nonzero;stroke:none"
         id="path72" />
      <path
         d="m 2483.54,2534.68 h 88.66 v -17.23 h -88.66 v 17.23 0"
         style="fill:#104f8c;fill-opacity:1;fill-rule:nonzero;stroke:none"
         id="path74" />
      <path
         d="m 1588.93,2763.79 h 1618.53 v -24.63 H 1588.93 v 24.63 0"
         style="fill:#104f8c;fill-opacity:1;fill-rule:nonzero;stroke:none"
         id="path76" />
      <path
         d="m 0,2889.44 v 0 z m 1177.54,-179.85 h 189.7 l -189.7,66.54 -458.231,160.1 h -2.43 L 66.4883,2709.59 H 1177.54 v 0 z m 0,-110.84 h 160.14 v 86.23 H 96.0547 v -86.23 H 1177.54 Z m 448.36,0 v 86.23 h -263.61 v -86.23 h 263.61 z m 773.53,-24.66 v 0 z m 785.84,241.42 -783.38,275.95 -2.46,-2.48 -788.31,-273.47 h 1574.15 z m -787.88,-216.76 v 0.08 h 751.33 v 86.15 H 1648.09 v -86.23 h 749.3 z m 2.04,-24.55 v -0.11 H 1177.54 v 0 H 0 v 24.66 h 73.8984 v 86.23 H 0 v 24.61 l 450.813,157.66 H 0 v 22.19 h 514.867 l 202.012,71.44 v 0 h 2.43 l 202.019,-71.44 h 256.212 v 0 h 315.34 v 0 h 266.05 l 640.5,226.63 v 0 h 2.46 l 638.03,-226.63 h 578.96 v 0 h 253.69 l 204.53,73.88 201.94,-73.88 h 514.91 v -22.19 h -448.36 l 448.36,-157.66 v -24.61 h -71.4 v -86.23 h 73.82 v -24.66 H 4077.1 v 0 l -1677.67,0.11 z m 1059.12,111 v -86.24 l 618.55,-0.21 h 620.75 v 86.23 l -1239.3,0.22 z m -29.6,24.62 1295.99,-0.23 -647.84,226.64 -648.15,-226.41 z m -68.94,0 446.07,157.43 h -702.12 l 150.26,-51.74 v -24.62 H 1542.14 v 24.62 l 150.28,51.74 H 1492.88 1177.54 987.863 l 189.677,-66.49 258.65,-91.17 1923.82,0.23 z m 73.91,-110.86 v 86.24 l -262.97,-0.22 v -86.15 l 262.97,0.13 v 0"
         style="fill:#104f8c;fill-opacity:1;fill-rule:nonzero;stroke:none"
         id="path78" />
      <path
         d="m 1691.12,2566.76 h 135.48 v -22.17 h -135.48 v 22.17 0"
         style="fill:#104f8c;fill-opacity:1;fill-rule:nonzero;stroke:none"
         id="path80" />
      <path
         d="m 1713.3,2534.73 h 91.15 v -17.25 h -91.15 v 17.25 0"
         style="fill:#104f8c;fill-opacity:1;fill-rule:nonzero;stroke:none"
         id="path82" />
      <path
         d="m 2458.15,2566.76 h 135.51 v -22.17 h -135.51 v 22.17 0"
         style="fill:#104f8c;fill-opacity:1;fill-rule:nonzero;stroke:none"
         id="path84" />
      <path
         d="m 2480.34,2534.73 h 91.16 v -17.25 h -91.16 v 17.25 0"
         style="fill:#104f8c;fill-opacity:1;fill-rule:nonzero;stroke:none"
         id="path86" />
      <path
         d="m 2716.29,2566.76 h 135.5 v -22.17 h -135.5 v 22.17 0"
         style="fill:#104f8c;fill-opacity:1;fill-rule:nonzero;stroke:none"
         id="path88" />
      <path
         d="m 2738.48,2534.73 h 91.12 v -17.25 h -91.12 v 17.25 0"
         style="fill:#104f8c;fill-opacity:1;fill-rule:nonzero;stroke:none"
         id="path90" />
      <path
         d="m 2203.73,2564.89 h 132.99 v -22.17 h -132.99 v 22.17 0"
         style="fill:#104f8c;fill-opacity:1;fill-rule:nonzero;stroke:none"
         id="path92" />
      <path
         d="m 2225.85,2532.86 h 88.69 v -17.24 h -88.69 v 17.24 0"
         style="fill:#104f8c;fill-opacity:1;fill-rule:nonzero;stroke:none"
         id="path94" />
      <path
         d="m 1947.29,2565.96 h 133.01 v -22.17 h -133.01 v 22.17 0"
         style="fill:#104f8c;fill-opacity:1;fill-rule:nonzero;stroke:none"
         id="path96" />
      <path
         d="m 1969.43,2533.95 h 88.67 v -17.24 h -88.67 v 17.24 0"
         style="fill:#104f8c;fill-opacity:1;fill-rule:nonzero;stroke:none"
         id="path98" />
      <path
         d="m 2972.19,2566.76 h 133.01 v -22.17 h -133.01 v 22.17 0"
         style="fill:#104f8c;fill-opacity:1;fill-rule:nonzero;stroke:none"
         id="path100" />
      <path
         d="m 2994.36,2534.73 h 88.67 v -17.25 h -88.67 v 17.25 0"
         style="fill:#104f8c;fill-opacity:1;fill-rule:nonzero;stroke:none"
         id="path102" />
      <path
         d="m 1672.94,1677.46 h 172.42 v -22.2 h -172.42 v 22.2 0"
         style="fill:#104f8c;fill-opacity:1;fill-rule:nonzero;stroke:none"
         id="path104" />
      <path
         d="m 2439.97,1677.46 h 172.41 v -22.2 h -172.41 v 22.2 0"
         style="fill:#104f8c;fill-opacity:1;fill-rule:nonzero;stroke:none"
         id="path106" />
      <path
         d="m 2698.09,1677.46 h 172.42 v -22.2 h -172.42 v 22.2 0"
         style="fill:#104f8c;fill-opacity:1;fill-rule:nonzero;stroke:none"
         id="path108" />
      <path
         d="m 2183.98,1675.58 h 172.46 v -22.19 h -172.46 v 22.19 0"
         style="fill:#104f8c;fill-opacity:1;fill-rule:nonzero;stroke:none"
         id="path110" />
      <path
         d="m 1927.53,1676.65 h 172.48 v -22.18 h -172.48 v 22.18 0"
         style="fill:#104f8c;fill-opacity:1;fill-rule:nonzero;stroke:none"
         id="path112" />
      <path
         d="m 2952.45,1677.45 h 172.44 v -22.19 h -172.44 v 22.19 0"
         style="fill:#104f8c;fill-opacity:1;fill-rule:nonzero;stroke:none"
         id="path114" />
      <path
         d="m 2824.86,2216.52 h 173.25 v -334.68 h -173.25 v 334.68 z m -258.13,0 h 173.24 v -334.68 h -173.24 v 334.68 z m -255.68,0 h 173.25 v -334.68 h -173.25 v 334.68 z m -255.86,0 h 172.67 v -334.68 h -172.67 v 334.68 z m -255.47,0 h 173.76 v -334.68 h -173.76 v 334.68 z m 1223.06,248.46 h 29.89 v -743.16 h -29.89 v 743.16 z m -258.14,0 h 35.56 v -743.16 h -35.56 v 743.16 z m -255.67,0 h 33.08 v -743.16 h -33.08 v 743.16 z m -256.43,0 h 33.84 v -743.16 h -33.84 v 743.16 z m -255.23,0 h 32.64 v -743.16 h -32.64 v 743.16 z m -254.65,0 h 32.38 v -743.16 h -32.38 v 743.16 z M 162.598,1938.51 v 576.47 h 49.226 v -576.47 h -49.226 z m 261.113,576.47 v -576.47 h -49.266 v 576.47 h 49.266 z m 211.836,0 v -576.47 h -49.238 v 576.47 h 49.238 z m 162.617,-576.47 v 576.47 h 49.242 v -576.47 h -49.242 z m 261.126,576.47 v -576.47 h -49.26 v 576.47 h 49.26 z m 211.84,0 v -576.47 h -49.24 v 576.47 h 49.24 z m 446.85,-298.11 v 22.2 z m 1804.79,298.11 v -576.47 h 49.25 v 576.47 h -49.25 z m 236.47,0 h -24.62 v -576.47 h 24.62 v 0 h 24.68 v 576.47 h -24.68 z m 187.24,0 v -576.47 c 16.44,0 32.87,0 49.3,0 v 576.47 c -16.42,0 -32.86,0 -49.3,0 z m 236.52,0 h -24.64 v -576.47 h 49.28 v 576.47 H 4183 Z m 423.71,-576.47 v 0 h -24.62 v 576.47 h 24.62 24.65 v -576.47 h -24.65 z m -211.87,576.47 h -24.62 v -576.47 h 49.24 v 576.47 h -24.62 z M 3434.12,1391.61 v -54.18 H 1362.29 v 54.18 h 2071.83 z m -73.95,76.38 v -51.73 H 1436.19 v 51.73 h 1923.98 z m -282.84,389.22 v -157.55 h -79.22 v 157.39 h -173.25 v -157.39 h -84.89 v 157.39 h -173.24 v -157.39 h -82.43 v 157.39 h -173.25 v -157.39 h -83.19 v 157.39 h -172.67 v -157.39 h -81.71 v 157.39 h -173.76 v -157.39 h -81.74 v 157.55 h -355.69 v -440.95 h 51.76 v 76.34 h 76.34 v 73.93 h 155.55 1660.04 v -73.93 h 78.8 v -76.34 h 49.34 v 440.95 h -356.79 z m -1359.35,634.04 h 81.74 v -252.57 h 173.76 v 252.57 h 81.71 v -252.57 h 172.67 v 252.57 h 83.19 v -252.57 h 173.25 v 252.57 h 82.43 v -252.57 h 173.24 v 252.57 h 84.89 v -252.57 h 173.25 v 252.57 h 79.22 v -252.18 -0.18 h 420.81 v 300.72 h 96.04 v -300.54 h 115.78 v 300.54 h 49.28 46.84 v -300.54 h 115.76 v 300.54 c 32.85,0 65.7,0 98.55,0 v -300.54 h 115.79 v 300.54 h 46.82 46.8 v -300.54 h 115.79 v 300.54 h 49.25 49.26 v -300.54 h 115.8 v 300.54 h 46.81 49.32 v -300.54 h 137.92 v -22.19 h -137.92 v -300.53 h -49.32 -46.81 v 300.53 h -115.8 v -300.53 h -49.26 -49.25 v 300.53 H 4229.8 v -300.53 h -46.8 -46.82 v 300.53 h -115.79 v -300.53 c -32.85,0 -65.7,0 -98.55,0 v 300.53 h -115.76 v -300.53 h -46.84 -49.28 v 300.53 h -115.78 v -300.53 h -96.04 v 300.53 h -420.81 v -0.36 -334.68 h 1716.62 v -24.63 H 3456.23 v -128.08 h 1337.72 v -22.19 H 3456.23 v -140.41 h 1337.72 v -22.18 H 3456.23 v -128.09 h 1337.72 v -24.65 H 3456.23 v -54.18 h 1337.71 v -39.4 H 0 v 39.4 h 1337.68 v 54.18 H 0 v 24.65 h 1337.68 v 128.09 H 0 v 22.18 h 1337.68 v 140.41 H 0 v 22.19 h 1337.68 v 128.08 H 0 v 24.63 h 1717.98 v 335.03 l -422.18,0.01 v -300.53 h -96.09 v 300.53 h -115.78 v -300.53 h -96.059 v 300.53 H 872.043 v -300.53 h -96.059 v 300.53 H 657.738 v -300.53 h -93.633 v 300.53 H 448.344 v -300.53 h -98.547 v 300.53 H 234.055 v -300.53 h -96.133 v 300.53 H 0 v 22.19 h 137.922 v 300.54 h 96.133 v -300.54 h 115.742 v 300.54 h 98.547 v -300.54 h 115.761 v 300.54 h 93.633 v -300.54 h 118.246 v 300.54 h 96.059 v -300.54 h 115.828 v 300.54 h 96.059 v -300.54 h 115.78 v 300.54 h 96.09 v -300.54 h 422.18 v 252.18 z m 1565.86,-946.9 V 1492.6 H 1512.59 v 51.75 h 1771.25 v 0"
         style="fill:#104f8c;fill-opacity:1;fill-rule:evenodd;stroke:none"
         id="path116" />
      <path
         d="m 1674.27,1611.96 v -23.26 h 169.71 v 23.26 h -169.71 z m -22.17,22.18 h 214.06 v -67.61 l -214.06,-0.01 v 67.62 0"
         style="fill:#104f8c;fill-opacity:1;fill-rule:evenodd;stroke:none"
         id="path118" />
      <path
         d="m 1928.9,1611.96 v -23.26 h 169.72 v 23.26 H 1928.9 Z m -22.17,22.18 h 214.06 v -67.61 l -214.06,-0.01 v 67.62 0"
         style="fill:#104f8c;fill-opacity:1;fill-rule:evenodd;stroke:none"
         id="path120" />
      <path
         d="m 2185.34,1611.4 v -23.25 h 169.71 v 23.25 h -169.71 z m -22.17,22.18 h 214.06 v -67.61 l -214.06,-0.01 v 67.62 0"
         style="fill:#104f8c;fill-opacity:1;fill-rule:evenodd;stroke:none"
         id="path122" />
      <path
         d="m 2441.33,1611.96 v -23.26 h 169.7 v 23.26 h -169.7 z m -22.18,22.18 h 214.06 v -67.61 l -214.06,-0.01 v 67.62 0"
         style="fill:#104f8c;fill-opacity:1;fill-rule:evenodd;stroke:none"
         id="path124" />
      <path
         d="m 2699.45,1611.96 v -23.26 h 169.72 v 23.26 h -169.72 z m -22.17,22.18 h 214.06 v -67.61 l -214.06,-0.01 v 67.62 0"
         style="fill:#104f8c;fill-opacity:1;fill-rule:evenodd;stroke:none"
         id="path126" />
      <path
         d="m 2953.79,1611.96 v -23.26 h 169.72 v 23.26 h -169.72 z m -22.18,22.18 h 214.06 v -67.61 l -214.06,-0.01 v 67.62 0"
         style="fill:#104f8c;fill-opacity:1;fill-rule:evenodd;stroke:none"
         id="path128" />
    </g>
  </g>
</svg>
